<svg version="1.0" xmlns="http://www.w3.org/2000/svg"
 width="501.000000pt" height="498.000000pt" viewBox="0 0 501.000000 498.000000"
 preserveAspectRatio="xMidYMid meet">

<g transform="translate(0.000000,498.000000) scale(0.100000,-0.100000)"
fill="#000000" stroke="none">
<path d="M2320 4950 c-829 -70 -1555 -538 -1956 -1263 -95 -172 -185 -400
-233 -593 -53 -209 -65 -325 -65 -594 0 -195 3 -275 16 -340 9 -47 19 -107 23
-134 9 -66 39 -179 82 -311 249 -766 891 -1374 1676 -1589 239 -66 360 -80
657 -80 244 0 277 2 410 26 407 75 738 218 1061 459 475 354 813 889 928 1466
43 215 55 355 48 582 -9 320 -55 543 -173 841 -265 667 -836 1198 -1529 1421
-115 37 -286 75 -417 94 -130 18 -403 26 -528 15z m340 -1225 c527 -64 945
-444 1066 -970 15 -63 19 -119 18 -265 0 -174 -2 -192 -32 -303 -118 -445
-470 -789 -922 -897 -131 -31 -332 -38 -464 -16 -837 143 -1292 1035 -910
1784 189 372 550 625 959 670 116 13 157 13 285 -3z"/>
<path d="M2424 3131 c-237 -38 -439 -207 -514 -431 -31 -91 -38 -244 -16 -342
68 -308 339 -512 655 -495 170 9 302 68 423 189 74 75 136 186 163 293 19 76
19 222 -1 305 -41 176 -173 341 -335 418 -46 22 -104 44 -129 50 -66 16 -187
22 -246 13z"/>
</g>
</svg>
